<svg xmlns="http://www.w3.org/2000/svg" width="300" height="63" viewBox="0 0 300 63" version="1.1"><path d="M 19.500 5.351 C 6.687 9.050, -0.019 18.526, 0.022 32.872 C 0.056 44.539, 4.999 52.925, 14.501 57.434 C 19.522 59.816, 32.922 60.618, 41.298 59.038 C 48.445 57.690, 48.960 57.060, 48.986 49.633 C 48.999 46.076, 48.820 45.824, 46.750 46.481 C 45.512 46.873, 40.450 47.402, 35.500 47.656 C 28.129 48.033, 25.879 47.790, 23.071 46.308 C 19.444 44.395, 16.591 40.975, 15.515 37.250 L 14.865 35 32.433 35 L 50 35 50.140 31.750 C 50.806 16.271, 45.283 7.538, 33.309 5.133 C 26.626 3.791, 24.804 3.820, 19.500 5.351 M 81.759 6.362 C 79.702 7.130, 76.933 8.469, 75.607 9.338 C 73.292 10.854, 73.170 10.814, 72.546 8.328 C 71.909 5.787, 71.765 5.748, 64.912 6.238 C 61.071 6.513, 57.680 6.986, 57.377 7.290 C 57.074 7.593, 57.422 10.465, 58.152 13.671 C 59.007 17.427, 59.482 26.434, 59.489 39 L 59.500 58.500 67 58.500 L 74.500 58.500 74.500 39.623 L 74.500 20.747 77.984 18.873 C 82.901 16.230, 88.243 16.443, 91.694 19.421 L 94.500 21.842 94.500 40.171 L 94.500 58.500 99.947 58.809 C 110.346 59.399, 109.618 61.073, 109.375 37.139 C 109.140 14.065, 108.693 12.054, 102.888 7.921 C 98.919 5.094, 87.429 4.247, 81.759 6.362 M 176.966 5.922 C 175.022 6.303, 172.948 6.914, 172.356 7.280 C 171.221 7.981, 169.683 16.678, 170.469 17.950 C 170.721 18.358, 174.393 18.047, 178.629 17.257 C 191.094 14.935, 199 17.307, 199 23.371 C 199 25.525, 198.455 25.803, 193.023 26.418 C 175.836 28.362, 168 34.468, 168 45.916 C 168 55.267, 175.631 60.765, 187.160 59.719 C 190.388 59.427, 194.822 58.252, 197.014 57.110 L 201 55.032 201 57.062 C 201 58.929, 201.537 59.068, 207.729 58.796 L 214.457 58.500 214.133 38 C 213.732 12.561, 212.795 9.829, 203.316 6.449 C 199.297 5.015, 183.233 4.694, 176.966 5.922 M 119.687 6.646 C 119.309 7.024, 119 9.733, 119 12.667 L 119 18 130.500 18 C 136.825 18, 142 18.268, 142 18.596 C 142 19.720, 137.625 25.515, 128.403 36.605 C 120.156 46.523, 119.140 48.184, 118.896 52.146 C 118.746 54.585, 118.960 57.126, 119.371 57.791 C 119.912 58.667, 125.308 59, 138.977 59 C 149.350 59, 158.548 58.727, 159.418 58.393 C 160.597 57.940, 161 56.375, 161 52.240 L 161 46.695 149 47.298 C 142.400 47.630, 137 47.578, 137 47.183 C 137 45.854, 142.280 38.570, 150.724 28.252 C 158.933 18.220, 159.114 17.882, 159.305 12.252 L 159.500 6.500 139.937 6.229 C 129.178 6.081, 120.065 6.268, 119.687 6.646 M 20.881 16.503 C 18.692 17.693, 15 23.279, 15 25.401 C 15 25.731, 19.781 26, 25.625 26 L 36.250 26 35.626 22.750 C 34.361 16.161, 27.140 13.102, 20.881 16.503 M 189.313 36.102 C 185.848 37.105, 182 41.250, 182 43.980 C 182 48.286, 189.915 50.504, 196.435 48.025 C 198.797 47.127, 199 46.572, 199 41.025 L 199 35 195.750 35.090 C 193.963 35.140, 191.066 35.595, 189.313 36.102" stroke="none" fill="#040404" fill-rule="evenodd"/><path d="M 258.589 5.077 C 255.637 8.585, 255.267 12.682, 257.510 17.020 C 259.330 20.539, 261.237 21.643, 267.998 23.093 C 272.109 23.975, 273.538 24.834, 275.071 27.349 C 277.702 31.664, 277.489 34.431, 274.250 37.992 C 272.284 40.154, 270.080 41.275, 266.522 41.922 C 257.713 43.524, 253.711 50.673, 257.510 58.020 C 259.456 61.783, 261.842 63.005, 267.184 62.978 C 273.242 62.947, 278 58.607, 278 53.113 C 278 47.581, 282.859 43, 288.728 43 C 293.940 43, 299 37.352, 299 31.535 C 299 27.323, 293.354 22.138, 287.635 21.099 C 281.514 19.987, 279.025 17.517, 277.887 11.423 C 276.545 4.240, 273.937 2, 266.915 2 C 261.736 2, 260.926 2.299, 258.589 5.077 M 241.315 22.464 C 237.648 24.058, 235 28.498, 235 33.050 C 235 35.299, 235.973 37.173, 238.400 39.600 C 241.187 42.387, 242.557 43, 246 43 C 254.502 43, 259.889 33.339, 255.296 26.328 C 253.663 23.837, 248.482 20.957, 245.782 21.039 C 245.077 21.061, 243.067 21.702, 241.315 22.464" stroke="none" fill="#94dcb4" fill-rule="evenodd"/></svg>